# xmcd
#
# Track frame offsets:
#	150
#	11608
#	23663
#	35243
#	44574
#	53978
#	65433
#	77854
#	87767
#	97880
#	110612
#	122403
#	133502
#	145021
#	156126
#	169997
#	180718
#	191433
#	201127
#	212834
#
# Disc length: 2970
#
# Revision: 1
# Processed by: cddbd v1.5.1PL0 Copyright (c) Steve Scherf et al.
# Submitted via: EasyCDDAExtractor 4.6.0.1
# Normalized: r0:DSETVAR1,TDELIM( - )
#
DISCID=140b9814
DTITLE=Various Artist - Hillbilly Hot Shots Vol. 2
DYEAR=1900
DGENRE=Hillbilly
TTITLE0=Roy Hogsed - Mean Mean Woman
TTITLE1=Tex Williams - Miss Molly
TTITLE2=Louie Innis - What A Way To Die
TTITLE3=Faron Young - Phil´s Boogie
TTITLE4=Willie Phelps - Roaring Robbie Moore
TTITLE5=Bill Boyd - I Always Loose
TTITLE6=Johnny Tyler - Freight Train Boogie
TTITLE7=Louie Innis - I Grabbed For The Engine
TTITLE8=Faron Young - They Made Me Fall In Love With You
TTITLE9=Tex Williams - Birmigham Bounce
TTITLE10=Al Dexter - Fisherman´s Boogie
TTITLE11=Johnny Tyler - Little Rock A-r-k
TTITLE12=Johnny Tyler - Lie To Me Baby
TTITLE13=Faron Young - Steel Guitar Jubilee
TTITLE14=Bill Boyd - Oklahoma Bound
TTITLE15=Louie Innis - I Got A Round Trip Ticket
TTITLE16=Johnny Tyler - Devils Hot Rod
TTITLE17=Roy Hogsed - I'm Hurting Again
TTITLE18=Louie Innis - Whammy Bammy Buzzard Goozer
TTITLE19=Faron Young - Just Married
EXTD=
EXTT0=
EXTT1=
EXTT2=
EXTT3=
EXTT4=
EXTT5=
EXTT6=
EXTT7=
EXTT8=
EXTT9=
EXTT10=
EXTT11=
EXTT12=
EXTT13=
EXTT14=
EXTT15=
EXTT16=
EXTT17=
EXTT18=
EXTT19=
PLAYORDER=
